<svg width="127" height="127" viewBox="0 0 127 127" fill="none" xmlns="http://www.w3.org/2000/svg">
<circle cx="63.5" cy="63.5" r="63.5" fill="#D9D9D9"/>
<circle cx="63.5" cy="63.5" r="50.5" fill="white"/>
<path d="M48.7601 52.6677C53.3583 57.1579 54.9333 62.8999 52.278 65.4928C49.6227 68.0857 43.7426 66.5477 39.1444 62.0575C34.5462 57.5673 32.9711 51.8253 35.6264 49.2324C38.2817 46.6395 44.1619 48.1775 48.7601 52.6677Z" fill="#E51433"/>
<path d="M92 45C96.5982 49.4902 97.3652 56.3167 94.7099 58.9097C92.0546 61.5026 86.1745 59.9645 81.5763 55.4744C76.978 50.9842 75.403 45.2422 78.0583 42.6493C80.7136 40.0564 87.4018 40.5098 92 45Z" fill="#E51433"/>
<path d="M66.407 39.6951C71.0052 44.1852 72.5803 49.9272 69.9249 52.5202C67.2696 55.1131 61.3895 53.575 56.7913 49.0849C52.1931 44.5947 50.618 38.8527 53.2733 36.2598C55.9287 33.6669 61.8088 35.2049 66.407 39.6951Z" fill="#E51433"/>
<path d="M82.9198 65.2934C88.855 71.0891 88.226 81.0999 81.5149 87.6533C74.8039 94.2066 64.5522 94.8208 58.6171 89.0252C52.682 83.2295 53.311 73.2187 60.022 66.6653C66.733 60.112 76.9847 59.4977 82.9198 65.2934Z" fill="#E51433"/>
<path d="M41.4237 71.0617C46.022 75.5519 47.597 81.2939 44.9417 83.8868C42.2864 86.4797 36.4062 84.9417 31.808 80.4515C27.2098 75.9613 25.6348 70.2193 28.2901 67.6264C30.9454 65.0335 36.8255 66.5715 41.4237 71.0617Z" fill="#E51433"/>
</svg>
