<svg width="404" height="376" viewBox="0 0 404 376" fill="none" xmlns="http://www.w3.org/2000/svg">
<ellipse cx="35.2488" cy="60.5004" rx="35.2488" ry="60.5004" transform="matrix(0.719929 -0.694047 0.719929 0.694047 43.5662 138.496)" fill="#221D3A"/>
<ellipse cx="34.9369" cy="60.5004" rx="34.9369" ry="60.5004" transform="matrix(0.719929 -0.694047 0.719929 0.694047 11.4102 234.496)" fill="#221D3A"/>
<ellipse cx="34.9369" cy="60.5004" rx="34.9369" ry="60.5004" transform="matrix(0.719929 -0.694047 0.719929 0.694047 266.584 105.496)" fill="#221D3A"/>
<ellipse cx="34.9369" cy="60.5004" rx="34.9369" ry="60.5004" transform="matrix(0.719929 -0.694047 0.719929 0.694047 136.922 72.4957)" fill="#221D3A"/>
<ellipse cx="34.9369" cy="60.5004" rx="34.9369" ry="60.5004" transform="matrix(0.719929 -0.694047 0.719929 0.694047 38.3798 115.496)" fill="#1E42B6"/>
<ellipse cx="34.9369" cy="60.5004" rx="34.9369" ry="60.5004" transform="matrix(0.719929 -0.694047 0.719929 0.694047 260.36 81.4957)" fill="#1E42B6"/>
<ellipse cx="34.9369" cy="60.5004" rx="34.9369" ry="60.5004" transform="matrix(0.719929 -0.694047 0.719929 0.694047 130.699 48.4957)" fill="#1E42B6"/>
<ellipse cx="88.2995" cy="78.0904" rx="88.2995" ry="78.0904" transform="matrix(0.719929 -0.694047 0.719929 0.694047 144.183 267.568)" fill="#221D3A"/>
<ellipse cx="88.2995" cy="78.0904" rx="88.2995" ry="78.0904" transform="matrix(0.719929 -0.694047 0.719929 0.694047 127.587 242.568)" fill="#1E42B6"/>
<ellipse cx="34.9369" cy="60.5004" rx="34.9369" ry="60.5004" transform="matrix(0.719929 -0.694047 0.719929 0.694047 0 210.496)" fill="#1E42B6"/>
</svg>
